<?xml version="1.0" encoding="UTF-8" standalone="no"?>
<!-- Created with Inkscape (http://www.inkscape.org/) -->

<svg
   xmlns:dc="http://purl.org/dc/elements/1.1/"
   xmlns:cc="http://creativecommons.org/ns#"
   xmlns:rdf="http://www.w3.org/1999/02/22-rdf-syntax-ns#"
   xmlns:svg="http://www.w3.org/2000/svg"
   xmlns="http://www.w3.org/2000/svg"
   xmlns:sodipodi="http://sodipodi.sourceforge.net/DTD/sodipodi-0.dtd"
   xmlns:inkscape="http://www.inkscape.org/namespaces/inkscape"
   version="1.1"
   id="svg25936"
   xml:space="preserve"
   width="800"
   height="800"
   viewBox="0 0 800 800"
   sodipodi:docname="speech-balloons-svg.svg"
   inkscape:version="0.92.4 (5da689c313, 2019-01-14)"><metadata
     id="metadata25942"><rdf:RDF><cc:Work
         rdf:about=""><dc:format>image/svg+xml</dc:format><dc:type
           rdf:resource="http://purl.org/dc/dcmitype/StillImage" /><dc:title></dc:title></cc:Work></rdf:RDF></metadata><defs
     id="defs25940"><clipPath
       clipPathUnits="userSpaceOnUse"
       id="clipPath25952"><path
         d="M 0,600 H 600 V 0 H 0 Z"
         id="path25950"
         inkscape:connector-curvature="0" /></clipPath></defs><sodipodi:namedview
     pagecolor="#ffffff"
     bordercolor="#666666"
     borderopacity="1"
     objecttolerance="10"
     gridtolerance="10"
     guidetolerance="10"
     inkscape:pageopacity="0"
     inkscape:pageshadow="2"
     inkscape:window-width="1920"
     inkscape:window-height="1018"
     id="namedview25938"
     showgrid="false"
     inkscape:zoom="0.78023364"
     inkscape:cx="455.9322"
     inkscape:cy="374.57627"
     inkscape:window-x="-8"
     inkscape:window-y="-8"
     inkscape:window-maximized="1"
     inkscape:current-layer="g25944" /><g
     id="g25944"
     inkscape:groupmode="layer"
     inkscape:label="speak-balloon-publicdomainvectors.org"
     transform="matrix(1.3333333,0,0,-1.3333333,0,800)"><g
       id="g25946"><g
         id="g25948"
         clip-path="url(#clipPath25952)"><path
           d="m 554.465,323.524 -20.979,78.291 c 7.879,15.705 12.32,33.431 12.32,52.197 0,64.38 -52.191,116.57 -116.571,116.57 -64.38,0 -116.569,-52.19 -116.569,-116.57 0,-64.38 52.189,-116.571 116.569,-116.571 15.146,0 29.615,2.89 42.889,8.146 z"
           style="fill:#ec008c;fill-opacity:1;fill-rule:nonzero;stroke:none"
           id="path25954"
           inkscape:connector-curvature="0" /><path
           d="m 326.795,454.012 c 0,-56.486 45.955,-102.441 102.44,-102.441 13.02,0 25.7,2.407 37.688,7.154 l 4.345,1.719 c 0,0 39.185,-10.499 63.214,-16.938 -6.173,23.038 -16.035,59.842 -16.035,59.842 l 2.41,4.803 c 7.179,14.31 10.819,29.74 10.819,45.861 0,56.486 -45.955,102.44 -102.441,102.44 -56.485,0 -102.44,-45.954 -102.44,-102.44"
           style="fill:#ffffff;fill-opacity:1;fill-rule:nonzero;stroke:none"
           id="path25956"
           inkscape:connector-curvature="0" /><path
           d="m 269.002,453.729 c 0,64.38 -52.19,116.57 -116.57,116.57 -64.38,0 -116.57,-52.19 -116.57,-116.57 0,-52.583 34.819,-97.028 82.656,-111.553 l 33.208,-57.518 32.914,57.011 c 48.714,13.976 84.362,58.853 84.362,112.06"
           style="fill:#00adef;fill-opacity:1;fill-rule:nonzero;stroke:none"
           id="path25958"
           inkscape:connector-curvature="0" /><path
           d="m 49.992,453.729 c 0,-22.416 7.105,-43.699 20.546,-61.548 13.013,-17.281 31.511,-30.237 52.085,-36.485 l 5.341,-1.621 c 0,0 14.001,-24.252 23.762,-41.157 9.659,16.73 23.531,40.759 23.531,40.759 l 5.487,1.574 c 20.939,6.007 39.805,18.906 53.121,36.319 13.743,17.972 21.008,39.467 21.008,62.159 0,56.486 -45.955,102.44 -102.441,102.44 -56.486,0 -102.44,-45.954 -102.44,-102.44"
           style="fill:#ffffff;fill-opacity:1;fill-rule:nonzero;stroke:none"
           id="path25960"
           inkscape:connector-curvature="0" /><path
           d="m 572.287,137.747 -52.584,30.358 c -12.98,42.419 -52.439,73.271 -99.107,73.271 -57.233,0 -103.629,-46.397 -103.629,-103.63 0,-57.232 46.396,-103.629 103.629,-103.629 46.669,0 86.129,30.852 99.107,73.271 z"
           style="fill:#fbbc09;fill-opacity:1;fill-rule:nonzero;stroke:none"
           id="path25962"
           inkscape:connector-curvature="0" /><path
           d="m 329.527,137.746 c 0,-50.215 40.854,-91.068 91.069,-91.068 19.893,0 38.788,6.297 54.641,18.209 15.345,11.531 26.87,27.93 32.454,46.176 l 1.448,4.73 c 0,0 22.509,12.995 38.025,21.954 -15.516,8.958 -38.025,21.954 -38.025,21.954 l -1.448,4.73 c -5.584,18.246 -17.109,34.644 -32.455,46.174 -15.852,11.913 -34.747,18.209 -54.64,18.209 -50.215,0 -91.069,-40.853 -91.069,-91.068"
           style="fill:#ffffff;fill-opacity:1;fill-rule:nonzero;stroke:none"
           id="path25964"
           inkscape:connector-curvature="0" /><path
           d="m 164.977,249.16 c -57.233,0 -103.63,-46.396 -103.63,-103.629 0,-18.894 5.059,-36.605 13.892,-51.857 L 57.731,28.335 130.419,47.812 c 10.81,-3.824 22.439,-5.911 34.558,-5.911 57.232,0 103.629,46.397 103.629,103.63 0,57.233 -46.397,103.629 -103.629,103.629"
           style="fill:#bfdf14;fill-opacity:1;fill-rule:nonzero;stroke:none"
           id="path25966"
           inkscape:connector-curvature="0" /><path
           d="m 73.908,145.531 c 0,-16.024 4.219,-31.78 12.201,-45.562 l 2.613,-4.511 c 0,0 -8.044,-30.018 -13.226,-49.359 21.24,5.691 55.437,14.854 55.437,14.854 l 3.674,-1.3 c 9.741,-3.444 19.958,-5.19 30.37,-5.19 50.215,0 91.068,40.852 91.068,91.068 0,50.215 -40.853,91.068 -91.068,91.068 -50.215,0 -91.069,-40.853 -91.069,-91.068"
           style="fill:#ffffff;fill-opacity:1;fill-rule:nonzero;stroke:none"
           id="path25968"
           inkscape:connector-curvature="0" /><path
           d="m 193.431,282.184 c 0,0.666 -0.096,1.236 -0.292,1.709 -0.192,0.476 -0.461,0.841 -0.808,1.099 -0.344,0.254 -0.722,0.381 -1.142,0.381 -0.664,0 -1.223,-0.277 -1.679,-0.818 -0.457,-0.551 -0.686,-1.354 -0.686,-2.416 0,-1 0.229,-1.776 0.678,-2.328 0.455,-0.555 1.019,-0.838 1.687,-0.838 0.401,0 0.77,0.121 1.116,0.369 0.335,0.242 0.611,0.603 0.816,1.088 0.208,0.486 0.31,1.07 0.31,1.754 m -4.718,3.66 v -0.301 c 0.45,0.58 0.921,1.014 1.409,1.281 0.489,0.276 1.042,0.414 1.661,0.414 0.739,0 1.423,-0.203 2.045,-0.603 0.623,-0.397 1.115,-0.977 1.478,-1.744 0.36,-0.77 0.542,-1.676 0.542,-2.727 0,-0.773 -0.104,-1.486 -0.314,-2.127 -0.207,-0.65 -0.493,-1.195 -0.858,-1.633 -0.366,-0.439 -0.798,-0.779 -1.292,-1.011 -0.499,-0.239 -1.034,-0.358 -1.601,-0.358 -0.69,0 -1.27,0.143 -1.735,0.434 -0.472,0.289 -0.914,0.707 -1.335,1.267 v -3.769 c 0,-1.108 -0.387,-1.656 -1.156,-1.656 -0.453,0 -0.754,0.138 -0.898,0.423 -0.147,0.287 -0.221,0.702 -0.221,1.25 v 10.844 c 0,0.479 0.098,0.836 0.299,1.07 0.201,0.237 0.474,0.358 0.82,0.358 0.34,0 0.62,-0.121 0.835,-0.365 0.211,-0.246 0.321,-0.596 0.321,-1.047"
           style="fill:#ec008c;fill-opacity:1;fill-rule:nonzero;stroke:none"
           id="path25970"
           inkscape:connector-curvature="0" /><path
           d="m 204.036,278.457 v 0.318 c -0.289,-0.38 -0.593,-0.697 -0.914,-0.953 -0.314,-0.263 -0.663,-0.453 -1.036,-0.578 -0.379,-0.123 -0.809,-0.187 -1.289,-0.187 -0.581,0 -1.102,0.127 -1.565,0.375 -0.462,0.252 -0.817,0.599 -1.07,1.041 -0.303,0.535 -0.451,1.3 -0.451,2.298 v 4.979 c 0,0.5 0.109,0.877 0.327,1.125 0.219,0.248 0.503,0.373 0.863,0.373 0.367,0 0.659,-0.125 0.883,-0.379 0.221,-0.252 0.332,-0.625 0.332,-1.119 v -4.023 c 0,-0.581 0.049,-1.069 0.139,-1.463 0.098,-0.401 0.266,-0.707 0.514,-0.934 0.238,-0.223 0.571,-0.334 0.988,-0.334 0.408,0 0.792,0.127 1.145,0.379 0.362,0.248 0.626,0.576 0.788,0.98 0.136,0.36 0.203,1.137 0.203,2.338 v 3.057 c 0,0.494 0.112,0.867 0.336,1.119 0.22,0.254 0.51,0.379 0.87,0.379 0.358,0 0.649,-0.125 0.864,-0.373 0.218,-0.248 0.324,-0.625 0.324,-1.125 v -7.277 c 0,-0.479 -0.1,-0.84 -0.312,-1.077 -0.205,-0.24 -0.474,-0.357 -0.805,-0.357 -0.327,0 -0.6,0.127 -0.816,0.371 -0.211,0.25 -0.318,0.594 -0.318,1.047"
           style="fill:#ec008c;fill-opacity:1;fill-rule:nonzero;stroke:none"
           id="path25972"
           inkscape:connector-curvature="0" /><path
           d="m 211.018,282.084 c 0,-1 0.216,-1.766 0.653,-2.303 0.439,-0.535 1.013,-0.808 1.726,-0.808 0.608,0 1.127,0.277 1.567,0.826 0.439,0.549 0.657,1.332 0.657,2.357 0,0.67 -0.092,1.24 -0.273,1.715 -0.183,0.481 -0.445,0.85 -0.775,1.109 -0.342,0.26 -0.727,0.393 -1.176,0.393 -0.461,0 -0.866,-0.133 -1.224,-0.393 -0.362,-0.259 -0.641,-0.638 -0.85,-1.132 -0.204,-0.489 -0.305,-1.077 -0.305,-1.764 m -0.116,7.471 v -3.842 c 0.447,0.494 0.912,0.867 1.382,1.133 0.471,0.259 1.055,0.392 1.748,0.392 0.8,0 1.497,-0.203 2.104,-0.593 0.599,-0.401 1.07,-0.971 1.401,-1.723 0.332,-0.752 0.499,-1.641 0.499,-2.672 0,-0.766 -0.092,-1.461 -0.275,-2.098 -0.187,-0.634 -0.454,-1.183 -0.808,-1.654 -0.354,-0.463 -0.783,-0.82 -1.284,-1.082 -0.504,-0.25 -1.059,-0.381 -1.662,-0.381 -0.369,0 -0.719,0.047 -1.047,0.139 -0.327,0.092 -0.606,0.213 -0.833,0.365 -0.23,0.145 -0.425,0.303 -0.587,0.461 -0.162,0.162 -0.372,0.398 -0.638,0.719 v -0.246 c 0,-0.475 -0.11,-0.83 -0.328,-1.077 -0.216,-0.24 -0.496,-0.361 -0.827,-0.361 -0.344,0 -0.611,0.121 -0.817,0.361 -0.202,0.25 -0.303,0.604 -0.303,1.077 v 10.968 c 0,0.506 0.099,0.893 0.296,1.153 0.196,0.261 0.468,0.392 0.824,0.392 0.367,0 0.654,-0.125 0.853,-0.375 0.201,-0.248 0.302,-0.599 0.302,-1.056"
           style="fill:#ec008c;fill-opacity:1;fill-rule:nonzero;stroke:none"
           id="path25974"
           inkscape:connector-curvature="0" /><path
           d="m 219.733,278.566 v 10.893 c 0,0.504 0.109,0.883 0.322,1.143 0.215,0.253 0.506,0.384 0.87,0.384 0.364,0 0.657,-0.127 0.881,-0.382 0.219,-0.254 0.334,-0.639 0.334,-1.145 v -10.893 c 0,-0.509 -0.116,-0.894 -0.34,-1.15 -0.223,-0.25 -0.52,-0.381 -0.875,-0.381 -0.353,0 -0.637,0.133 -0.859,0.397 -0.222,0.265 -0.333,0.64 -0.333,1.134"
           style="fill:#ec008c;fill-opacity:1;fill-rule:nonzero;stroke:none"
           id="path25976"
           inkscape:connector-curvature="0" /><path
           d="m 227.033,285.82 v -7.254 c 0,-0.505 -0.116,-0.888 -0.342,-1.144 -0.23,-0.254 -0.523,-0.387 -0.874,-0.387 -0.353,0 -0.64,0.133 -0.86,0.395 -0.22,0.267 -0.332,0.642 -0.332,1.136 v 7.184 c 0,0.494 0.112,0.867 0.332,1.119 0.22,0.254 0.507,0.379 0.86,0.379 0.351,0 0.644,-0.125 0.874,-0.379 0.226,-0.252 0.342,-0.599 0.342,-1.049 m -1.191,2.598 c -0.334,0 -0.619,0.107 -0.862,0.328 -0.232,0.213 -0.355,0.52 -0.355,0.912 0,0.354 0.123,0.645 0.368,0.881 0.241,0.229 0.526,0.338 0.849,0.338 0.31,0 0.59,-0.102 0.831,-0.309 0.237,-0.209 0.36,-0.517 0.36,-0.91 0,-0.388 -0.119,-0.689 -0.351,-0.906 -0.238,-0.219 -0.514,-0.334 -0.84,-0.334"
           style="fill:#ec008c;fill-opacity:1;fill-rule:nonzero;stroke:none"
           id="path25978"
           inkscape:connector-curvature="0" /><path
           d="m 238.142,280.146 c 0,-0.312 -0.089,-0.648 -0.268,-1.001 -0.182,-0.358 -0.455,-0.696 -0.822,-1.016 -0.365,-0.32 -0.829,-0.582 -1.387,-0.775 -0.557,-0.2 -1.188,-0.297 -1.887,-0.297 -1.486,0 -2.647,0.453 -3.483,1.355 -0.834,0.906 -1.251,2.117 -1.251,3.639 0,1.029 0.19,1.943 0.569,2.732 0.383,0.789 0.939,1.405 1.659,1.834 0.722,0.436 1.588,0.651 2.59,0.651 0.626,0 1.2,-0.096 1.72,-0.286 0.52,-0.189 0.959,-0.435 1.319,-0.736 0.363,-0.299 0.638,-0.621 0.831,-0.961 0.195,-0.34 0.285,-0.656 0.285,-0.951 0,-0.299 -0.107,-0.553 -0.321,-0.764 -0.216,-0.209 -0.473,-0.314 -0.779,-0.314 -0.2,0 -0.367,0.058 -0.499,0.168 -0.131,0.103 -0.282,0.271 -0.445,0.515 -0.296,0.465 -0.603,0.817 -0.922,1.053 -0.322,0.233 -0.73,0.352 -1.219,0.352 -0.713,0 -1.288,-0.293 -1.722,-0.871 -0.435,-0.584 -0.65,-1.375 -0.65,-2.381 0,-0.473 0.057,-0.91 0.165,-1.305 0.112,-0.396 0.276,-0.732 0.485,-1.014 0.214,-0.279 0.466,-0.49 0.769,-0.632 0.299,-0.147 0.628,-0.219 0.983,-0.219 0.485,0 0.896,0.115 1.241,0.349 0.345,0.237 0.648,0.59 0.912,1.065 0.15,0.289 0.308,0.508 0.477,0.67 0.173,0.158 0.382,0.234 0.628,0.234 0.292,0 0.538,-0.115 0.734,-0.345 0.189,-0.237 0.288,-0.483 0.288,-0.749"
           style="fill:#ec008c;fill-opacity:1;fill-rule:nonzero;stroke:none"
           id="path25980"
           inkscape:connector-curvature="0" /><path
           d="m 242.105,282.156 c 0,-0.679 0.102,-1.258 0.304,-1.738 0.205,-0.48 0.48,-0.834 0.831,-1.076 0.356,-0.248 0.74,-0.369 1.154,-0.369 0.424,0 0.811,0.119 1.161,0.345 0.349,0.231 0.627,0.586 0.837,1.063 0.21,0.473 0.31,1.066 0.31,1.775 0,0.674 -0.1,1.244 -0.31,1.729 -0.21,0.484 -0.491,0.849 -0.847,1.107 -0.356,0.254 -0.743,0.381 -1.165,0.381 -0.44,0 -0.833,-0.133 -1.184,-0.393 -0.342,-0.259 -0.614,-0.634 -0.803,-1.125 -0.19,-0.488 -0.288,-1.048 -0.288,-1.699 m 4.732,-3.683 v 0.246 c -0.322,-0.387 -0.643,-0.701 -0.959,-0.942 -0.312,-0.244 -0.654,-0.427 -1.021,-0.552 -0.365,-0.123 -0.769,-0.19 -1.203,-0.19 -0.574,0 -1.109,0.131 -1.598,0.381 -0.489,0.262 -0.915,0.621 -1.272,1.094 -0.359,0.47 -0.631,1.027 -0.817,1.668 -0.187,0.633 -0.279,1.324 -0.279,2.072 0,1.566 0.368,2.793 1.103,3.672 0.735,0.877 1.702,1.316 2.899,1.316 0.696,0 1.281,-0.127 1.754,-0.381 0.476,-0.244 0.941,-0.627 1.393,-1.144 v 3.709 c 0,0.516 0.098,0.904 0.296,1.168 0.195,0.264 0.473,0.396 0.84,0.396 0.363,0 0.643,-0.123 0.843,-0.361 0.196,-0.242 0.297,-0.602 0.297,-1.07 v -11.082 c 0,-0.479 -0.107,-0.84 -0.319,-1.077 -0.212,-0.24 -0.483,-0.361 -0.821,-0.361 -0.326,0 -0.6,0.123 -0.817,0.375 -0.213,0.244 -0.319,0.598 -0.319,1.063"
           style="fill:#ec008c;fill-opacity:1;fill-rule:nonzero;stroke:none"
           id="path25982"
           inkscape:connector-curvature="0" /><path
           d="m 258.123,282.139 c 0,1.021 -0.218,1.82 -0.651,2.388 -0.43,0.569 -1.013,0.858 -1.74,0.858 -0.473,0 -0.883,-0.129 -1.246,-0.385 -0.356,-0.256 -0.632,-0.631 -0.825,-1.129 -0.195,-0.492 -0.293,-1.07 -0.293,-1.732 0,-0.659 0.098,-1.229 0.288,-1.721 0.19,-0.49 0.464,-0.865 0.822,-1.127 0.352,-0.26 0.775,-0.387 1.254,-0.387 0.727,0 1.31,0.284 1.74,0.858 0.433,0.57 0.651,1.363 0.651,2.377 m 2.413,0 c 0,-0.748 -0.11,-1.436 -0.335,-2.073 -0.222,-0.625 -0.543,-1.171 -0.968,-1.627 -0.422,-0.453 -0.929,-0.793 -1.517,-1.043 -0.588,-0.24 -1.253,-0.361 -1.984,-0.361 -0.728,0 -1.382,0.121 -1.966,0.369 -0.582,0.244 -1.086,0.596 -1.513,1.053 -0.426,0.457 -0.747,0.996 -0.971,1.617 -0.219,0.627 -0.328,1.311 -0.328,2.069 0,0.759 0.112,1.455 0.333,2.086 0.226,0.632 0.545,1.169 0.961,1.621 0.418,0.445 0.923,0.791 1.518,1.033 0.597,0.242 1.249,0.365 1.966,0.365 0.729,0 1.393,-0.123 1.984,-0.369 0.592,-0.244 1.1,-0.596 1.525,-1.051 0.422,-0.455 0.743,-0.996 0.961,-1.621 0.227,-0.625 0.334,-1.316 0.334,-2.068"
           style="fill:#ec008c;fill-opacity:1;fill-rule:nonzero;stroke:none"
           id="path25984"
           inkscape:connector-curvature="0" /><path
           d="m 270.703,284.211 c -0.182,-0.424 -0.267,-1.172 -0.267,-2.252 v -3.338 c 0,-0.523 -0.113,-0.924 -0.345,-1.189 -0.228,-0.264 -0.533,-0.397 -0.908,-0.397 -0.363,0 -0.657,0.133 -0.882,0.397 -0.227,0.265 -0.339,0.666 -0.339,1.189 v 4.008 c 0,0.627 -0.023,1.119 -0.065,1.473 -0.043,0.347 -0.151,0.634 -0.333,0.861 -0.18,0.223 -0.47,0.336 -0.864,0.336 -0.785,0 -1.301,-0.281 -1.556,-0.85 -0.249,-0.564 -0.371,-1.375 -0.371,-2.431 v -3.397 c 0,-0.523 -0.115,-0.92 -0.338,-1.182 -0.227,-0.271 -0.528,-0.404 -0.893,-0.404 -0.367,0 -0.669,0.133 -0.898,0.404 -0.234,0.262 -0.345,0.659 -0.345,1.18 v 7.19 c 0,0.474 0.1,0.832 0.307,1.078 0.211,0.242 0.485,0.369 0.827,0.369 0.329,0 0.603,-0.115 0.825,-0.344 0.221,-0.23 0.329,-0.547 0.329,-0.953 v -0.238 c 0.417,0.523 0.865,0.904 1.339,1.148 0.475,0.244 1.009,0.369 1.587,0.369 0.605,0 1.119,-0.127 1.557,-0.381 0.439,-0.248 0.793,-0.63 1.075,-1.136 0.406,0.509 0.842,0.896 1.305,1.142 0.467,0.25 0.978,0.375 1.541,0.375 0.663,0 1.229,-0.133 1.702,-0.406 0.477,-0.271 0.833,-0.654 1.07,-1.158 0.206,-0.455 0.305,-1.17 0.305,-2.147 v -4.906 c 0,-0.523 -0.113,-0.924 -0.341,-1.189 -0.232,-0.264 -0.532,-0.397 -0.909,-0.397 -0.365,0 -0.663,0.133 -0.893,0.404 -0.237,0.262 -0.353,0.659 -0.353,1.182 v 4.229 c 0,0.537 -0.02,0.968 -0.064,1.296 -0.044,0.329 -0.164,0.598 -0.36,0.819 -0.191,0.221 -0.487,0.334 -0.877,0.334 -0.318,0 -0.621,-0.1 -0.902,-0.293 -0.29,-0.197 -0.508,-0.461 -0.666,-0.795"
           style="fill:#ec008c;fill-opacity:1;fill-rule:nonzero;stroke:none"
           id="path25986"
           inkscape:connector-curvature="0" /><path
           d="m 284.332,282.092 c -0.354,-0.139 -0.866,-0.279 -1.539,-0.434 -0.674,-0.148 -1.141,-0.256 -1.4,-0.33 -0.259,-0.072 -0.506,-0.207 -0.739,-0.412 -0.238,-0.211 -0.355,-0.498 -0.355,-0.865 0,-0.383 0.139,-0.707 0.416,-0.973 0.275,-0.269 0.637,-0.402 1.085,-0.402 0.475,0 0.917,0.111 1.318,0.332 0.403,0.215 0.7,0.5 0.886,0.842 0.217,0.379 0.328,1.004 0.328,1.882 z m 0.158,-3.643 c -0.586,-0.47 -1.147,-0.824 -1.69,-1.056 -0.543,-0.239 -1.154,-0.358 -1.827,-0.358 -0.621,0 -1.16,0.131 -1.627,0.381 -0.472,0.256 -0.83,0.602 -1.083,1.041 -0.251,0.434 -0.379,0.902 -0.379,1.414 0,0.688 0.212,1.272 0.629,1.758 0.413,0.48 0.987,0.809 1.714,0.973 0.155,0.037 0.535,0.117 1.138,0.248 0.61,0.13 1.124,0.248 1.561,0.351 0.43,0.108 0.9,0.237 1.406,0.391 -0.031,0.668 -0.157,1.152 -0.383,1.467 -0.228,0.306 -0.699,0.459 -1.408,0.459 -0.613,0 -1.071,-0.086 -1.384,-0.264 -0.307,-0.178 -0.572,-0.445 -0.79,-0.805 -0.223,-0.355 -0.376,-0.59 -0.468,-0.705 -0.091,-0.115 -0.29,-0.166 -0.586,-0.166 -0.272,0 -0.504,0.088 -0.699,0.268 -0.199,0.181 -0.298,0.414 -0.298,0.699 0,0.439 0.151,0.873 0.449,1.283 0.301,0.418 0.77,0.762 1.403,1.035 0.636,0.272 1.426,0.405 2.373,0.405 1.057,0 1.89,-0.133 2.498,-0.393 0.603,-0.258 1.027,-0.668 1.279,-1.238 0.25,-0.561 0.377,-1.311 0.377,-2.241 0,-0.589 0,-1.095 -0.006,-1.501 -0.005,-0.415 -0.005,-0.87 -0.013,-1.374 0,-0.47 0.075,-0.964 0.226,-1.474 0.147,-0.512 0.222,-0.844 0.222,-0.986 0,-0.258 -0.119,-0.497 -0.348,-0.707 -0.228,-0.209 -0.494,-0.319 -0.787,-0.319 -0.249,0 -0.489,0.121 -0.735,0.361 -0.238,0.247 -0.493,0.598 -0.764,1.053"
           style="fill:#ec008c;fill-opacity:1;fill-rule:nonzero;stroke:none"
           id="path25988"
           inkscape:connector-curvature="0" /><path
           d="m 291.547,285.82 v -7.254 c 0,-0.505 -0.116,-0.888 -0.344,-1.144 -0.229,-0.254 -0.518,-0.387 -0.871,-0.387 -0.353,0 -0.644,0.133 -0.862,0.395 -0.221,0.267 -0.331,0.642 -0.331,1.136 v 7.184 c 0,0.494 0.11,0.867 0.331,1.119 0.218,0.254 0.509,0.379 0.862,0.379 0.353,0 0.642,-0.125 0.871,-0.379 0.228,-0.252 0.344,-0.599 0.344,-1.049 m -1.191,2.598 c -0.333,0 -0.617,0.107 -0.858,0.328 -0.236,0.213 -0.359,0.52 -0.359,0.912 0,0.354 0.123,0.645 0.37,0.881 0.242,0.229 0.526,0.338 0.847,0.338 0.31,0 0.59,-0.102 0.832,-0.309 0.236,-0.209 0.359,-0.517 0.359,-0.91 0,-0.388 -0.118,-0.689 -0.353,-0.906 -0.235,-0.219 -0.516,-0.334 -0.838,-0.334"
           style="fill:#ec008c;fill-opacity:1;fill-rule:nonzero;stroke:none"
           id="path25990"
           inkscape:connector-curvature="0" /><path
           d="m 296.223,285.857 v -0.298 c 0.418,0.58 0.883,1.007 1.382,1.279 0.503,0.273 1.082,0.41 1.739,0.41 0.632,0 1.199,-0.143 1.702,-0.435 0.495,-0.286 0.87,-0.69 1.116,-1.217 0.158,-0.311 0.259,-0.643 0.308,-0.996 0.046,-0.356 0.073,-0.809 0.073,-1.362 v -4.672 c 0,-0.505 -0.115,-0.888 -0.333,-1.144 -0.221,-0.254 -0.51,-0.387 -0.858,-0.387 -0.358,0 -0.65,0.133 -0.868,0.397 -0.223,0.265 -0.339,0.64 -0.339,1.134 v 4.182 c 0,0.832 -0.107,1.463 -0.328,1.902 -0.224,0.438 -0.663,0.659 -1.324,0.659 -0.426,0 -0.818,-0.133 -1.171,-0.403 -0.353,-0.263 -0.61,-0.633 -0.776,-1.097 -0.115,-0.373 -0.178,-1.073 -0.178,-2.102 v -3.141 c 0,-0.509 -0.111,-0.894 -0.338,-1.15 -0.228,-0.25 -0.52,-0.381 -0.876,-0.381 -0.346,0 -0.633,0.133 -0.854,0.395 -0.227,0.267 -0.337,0.642 -0.337,1.136 v 7.254 c 0,0.481 0.099,0.836 0.301,1.073 0.196,0.236 0.475,0.355 0.819,0.355 0.211,0 0.404,-0.055 0.571,-0.158 0.175,-0.102 0.31,-0.264 0.41,-0.465 0.101,-0.213 0.159,-0.467 0.159,-0.768"
           style="fill:#ec008c;fill-opacity:1;fill-rule:nonzero;stroke:none"
           id="path25992"
           inkscape:connector-curvature="0" /><path
           d="m 306.403,285.684 1.945,-5.702 2.099,5.952 c 0.169,0.478 0.329,0.812 0.491,1.015 0.16,0.197 0.397,0.299 0.717,0.299 0.307,0 0.569,-0.107 0.786,-0.324 0.211,-0.215 0.319,-0.459 0.319,-0.746 0,-0.112 -0.02,-0.239 -0.058,-0.381 -0.035,-0.151 -0.079,-0.287 -0.132,-0.42 -0.05,-0.123 -0.103,-0.273 -0.171,-0.438 l -2.31,-5.98 c -0.065,-0.172 -0.151,-0.391 -0.251,-0.656 -0.106,-0.26 -0.221,-0.483 -0.345,-0.678 -0.129,-0.184 -0.284,-0.326 -0.467,-0.432 -0.187,-0.101 -0.412,-0.158 -0.678,-0.158 -0.34,0 -0.613,0.082 -0.816,0.242 -0.204,0.164 -0.353,0.34 -0.448,0.537 -0.096,0.19 -0.263,0.573 -0.491,1.145 l -2.294,5.914 c -0.053,0.148 -0.107,0.297 -0.166,0.441 -0.054,0.147 -0.095,0.295 -0.139,0.45 -0.034,0.158 -0.056,0.291 -0.056,0.394 0,0.176 0.05,0.344 0.152,0.514 0.1,0.17 0.24,0.31 0.415,0.416 0.179,0.105 0.365,0.16 0.573,0.16 0.398,0 0.673,-0.119 0.823,-0.361 0.151,-0.239 0.321,-0.641 0.502,-1.203"
           style="fill:#ec008c;fill-opacity:1;fill-rule:nonzero;stroke:none"
           id="path25994"
           inkscape:connector-curvature="0" /><path
           d="m 316.249,282.957 h 4.362 c -0.056,0.857 -0.276,1.498 -0.664,1.922 -0.386,0.426 -0.892,0.639 -1.522,0.639 -0.595,0 -1.091,-0.215 -1.473,-0.649 -0.388,-0.428 -0.618,-1.068 -0.703,-1.912 m 4.709,-1.428 h -4.709 c 0.003,-0.576 0.117,-1.074 0.327,-1.515 0.219,-0.43 0.503,-0.758 0.858,-0.983 0.355,-0.222 0.751,-0.33 1.179,-0.33 0.286,0 0.552,0.035 0.788,0.104 0.238,0.074 0.469,0.183 0.696,0.334 0.218,0.15 0.423,0.306 0.614,0.484 0.184,0.17 0.436,0.4 0.728,0.695 0.127,0.118 0.302,0.17 0.531,0.17 0.248,0 0.448,-0.07 0.601,-0.213 0.156,-0.142 0.227,-0.339 0.227,-0.595 0,-0.227 -0.084,-0.494 -0.255,-0.801 -0.169,-0.299 -0.423,-0.592 -0.773,-0.875 -0.344,-0.275 -0.777,-0.506 -1.297,-0.693 -0.516,-0.184 -1.113,-0.276 -1.792,-0.276 -1.545,0 -2.747,0.463 -3.604,1.381 -0.855,0.922 -1.284,2.168 -1.284,3.74 0,0.752 0.107,1.436 0.317,2.069 0.211,0.636 0.518,1.181 0.924,1.632 0.405,0.457 0.902,0.807 1.499,1.047 0.595,0.242 1.249,0.364 1.977,0.364 0.933,0 1.742,-0.207 2.416,-0.623 0.673,-0.415 1.177,-0.946 1.511,-1.602 0.337,-0.658 0.505,-1.324 0.505,-2.01 0,-0.629 -0.17,-1.039 -0.52,-1.224 -0.351,-0.19 -0.834,-0.28 -1.464,-0.28"
           style="fill:#ec008c;fill-opacity:1;fill-rule:nonzero;stroke:none"
           id="path25996"
           inkscape:connector-curvature="0" /><path
           d="m 333.603,280.146 c 0,-0.312 -0.09,-0.648 -0.271,-1.001 -0.181,-0.358 -0.45,-0.696 -0.82,-1.016 -0.366,-0.32 -0.831,-0.582 -1.392,-0.775 -0.556,-0.2 -1.186,-0.297 -1.884,-0.297 -1.488,0 -2.651,0.453 -3.483,1.355 -0.832,0.906 -1.252,2.117 -1.252,3.639 0,1.029 0.189,1.943 0.574,2.732 0.382,0.789 0.932,1.405 1.656,1.834 0.721,0.436 1.588,0.651 2.595,0.651 0.621,0 1.192,-0.096 1.716,-0.286 0.516,-0.189 0.955,-0.435 1.321,-0.736 0.361,-0.299 0.636,-0.621 0.83,-0.961 0.188,-0.34 0.285,-0.656 0.285,-0.951 0,-0.299 -0.105,-0.553 -0.327,-0.764 -0.212,-0.209 -0.47,-0.314 -0.776,-0.314 -0.201,0 -0.365,0.058 -0.495,0.168 -0.136,0.103 -0.285,0.271 -0.451,0.515 -0.292,0.465 -0.597,0.817 -0.918,1.053 -0.322,0.233 -0.727,0.352 -1.224,0.352 -0.707,0 -1.283,-0.293 -1.717,-0.871 -0.438,-0.584 -0.653,-1.375 -0.653,-2.381 0,-0.473 0.059,-0.91 0.166,-1.305 0.113,-0.396 0.277,-0.732 0.487,-1.014 0.212,-0.279 0.471,-0.49 0.77,-0.632 0.294,-0.147 0.626,-0.219 0.986,-0.219 0.478,0 0.896,0.115 1.238,0.349 0.342,0.237 0.65,0.59 0.915,1.065 0.145,0.289 0.303,0.508 0.474,0.67 0.168,0.158 0.378,0.234 0.627,0.234 0.29,0 0.537,-0.115 0.727,-0.345 0.198,-0.237 0.296,-0.483 0.296,-0.749"
           style="fill:#ec008c;fill-opacity:1;fill-rule:nonzero;stroke:none"
           id="path25998"
           inkscape:connector-curvature="0" /><path
           d="m 335.836,287.035 h 0.268 v 1.512 c 0,0.4 0.007,0.723 0.032,0.951 0.019,0.231 0.07,0.426 0.171,0.592 0.092,0.17 0.227,0.31 0.405,0.42 0.174,0.105 0.371,0.156 0.589,0.156 0.304,0 0.583,-0.117 0.827,-0.353 0.163,-0.165 0.269,-0.356 0.313,-0.584 0.045,-0.231 0.066,-0.563 0.066,-0.983 v -1.711 h 0.884 c 0.339,0 0.599,-0.084 0.779,-0.252 0.183,-0.17 0.27,-0.385 0.27,-0.648 0,-0.338 -0.128,-0.576 -0.386,-0.709 -0.253,-0.131 -0.618,-0.201 -1.097,-0.201 h -0.45 V 280.6 c 0,-0.397 0.011,-0.698 0.04,-0.911 0.028,-0.214 0.103,-0.384 0.216,-0.513 0.111,-0.135 0.298,-0.203 0.557,-0.203 0.143,0 0.332,0.027 0.576,0.08 0.235,0.051 0.425,0.078 0.563,0.078 0.192,0 0.371,-0.084 0.522,-0.24 0.156,-0.166 0.236,-0.364 0.236,-0.604 0,-0.404 -0.21,-0.713 -0.634,-0.93 -0.427,-0.212 -1.034,-0.322 -1.825,-0.322 -0.753,0 -1.325,0.133 -1.712,0.397 -0.388,0.265 -0.645,0.629 -0.76,1.099 -0.125,0.465 -0.182,1.088 -0.182,1.865 v 4.829 h -0.322 c -0.341,0 -0.606,0.084 -0.791,0.259 -0.182,0.17 -0.271,0.385 -0.271,0.651 0,0.263 0.094,0.478 0.284,0.648 0.192,0.168 0.471,0.252 0.832,0.252"
           style="fill:#ec008c;fill-opacity:1;fill-rule:nonzero;stroke:none"
           id="path26000"
           inkscape:connector-curvature="0" /><path
           d="m 348.688,282.139 c 0,1.021 -0.219,1.82 -0.649,2.388 -0.435,0.569 -1.011,0.858 -1.743,0.858 -0.468,0 -0.884,-0.129 -1.24,-0.385 -0.363,-0.256 -0.637,-0.631 -0.827,-1.129 -0.196,-0.492 -0.294,-1.07 -0.294,-1.732 0,-0.659 0.098,-1.229 0.289,-1.721 0.189,-0.49 0.461,-0.865 0.818,-1.127 0.354,-0.26 0.771,-0.387 1.254,-0.387 0.732,0 1.308,0.284 1.743,0.858 0.43,0.57 0.649,1.363 0.649,2.377 m 2.416,0 c 0,-0.748 -0.114,-1.436 -0.339,-2.073 -0.22,-0.625 -0.546,-1.171 -0.969,-1.627 -0.422,-0.453 -0.928,-0.793 -1.515,-1.043 -0.59,-0.24 -1.245,-0.361 -1.985,-0.361 -0.733,0 -1.385,0.121 -1.965,0.369 -0.582,0.244 -1.089,0.596 -1.512,1.053 -0.424,0.457 -0.75,0.996 -0.967,1.617 -0.22,0.627 -0.328,1.311 -0.328,2.069 0,0.759 0.108,1.455 0.328,2.086 0.229,0.632 0.545,1.169 0.961,1.621 0.42,0.445 0.924,0.791 1.518,1.033 0.599,0.242 1.253,0.365 1.965,0.365 0.732,0 1.39,-0.123 1.985,-0.369 0.593,-0.244 1.1,-0.596 1.524,-1.051 0.421,-0.455 0.749,-0.996 0.967,-1.621 0.218,-0.625 0.332,-1.316 0.332,-2.068"
           style="fill:#ec008c;fill-opacity:1;fill-rule:nonzero;stroke:none"
           id="path26002"
           inkscape:connector-curvature="0" /><path
           d="m 355.391,280.658 v -2.092 c 0,-0.509 -0.117,-0.894 -0.345,-1.15 -0.23,-0.25 -0.521,-0.381 -0.874,-0.381 -0.345,0 -0.632,0.133 -0.855,0.387 -0.222,0.256 -0.335,0.639 -0.335,1.144 v 6.989 c 0,1.131 0.391,1.693 1.173,1.693 0.396,0 0.687,-0.135 0.866,-0.396 0.172,-0.262 0.266,-0.655 0.291,-1.168 0.287,0.513 0.583,0.906 0.886,1.168 0.302,0.261 0.704,0.396 1.206,0.396 0.511,0 0.998,-0.135 1.477,-0.396 0.473,-0.262 0.715,-0.614 0.715,-1.047 0,-0.307 -0.104,-0.565 -0.306,-0.762 -0.2,-0.195 -0.421,-0.299 -0.656,-0.299 -0.087,0 -0.302,0.059 -0.641,0.174 -0.338,0.111 -0.638,0.17 -0.895,0.17 -0.351,0 -0.639,-0.096 -0.861,-0.293 -0.221,-0.193 -0.397,-0.477 -0.522,-0.857 -0.122,-0.385 -0.211,-0.834 -0.257,-1.362 -0.043,-0.521 -0.067,-1.158 -0.067,-1.918"
           style="fill:#ec008c;fill-opacity:1;fill-rule:nonzero;stroke:none"
           id="path26004"
           inkscape:connector-curvature="0" /><path
           d="m 368.209,280.316 c 0,-0.693 -0.16,-1.285 -0.487,-1.779 -0.325,-0.494 -0.802,-0.865 -1.434,-1.123 -0.632,-0.248 -1.399,-0.379 -2.308,-0.379 -0.86,0 -1.604,0.139 -2.223,0.416 -0.617,0.278 -1.073,0.619 -1.365,1.033 -0.296,0.411 -0.447,0.829 -0.447,1.243 0,0.277 0.099,0.513 0.289,0.709 0.185,0.197 0.425,0.294 0.711,0.294 0.252,0 0.449,-0.064 0.583,-0.191 0.138,-0.135 0.261,-0.312 0.387,-0.545 0.25,-0.449 0.543,-0.785 0.891,-1.006 0.34,-0.224 0.808,-0.332 1.407,-0.332 0.481,0 0.875,0.114 1.184,0.338 0.308,0.223 0.467,0.479 0.467,0.768 0,0.441 -0.165,0.767 -0.48,0.967 -0.324,0.207 -0.85,0.396 -1.586,0.582 -0.828,0.214 -1.504,0.439 -2.025,0.675 -0.521,0.237 -0.939,0.551 -1.25,0.936 -0.312,0.383 -0.469,0.859 -0.469,1.426 0,0.504 0.144,0.98 0.434,1.423 0.286,0.45 0.716,0.807 1.275,1.075 0.562,0.267 1.241,0.402 2.035,0.402 0.621,0 1.181,-0.07 1.681,-0.203 0.497,-0.133 0.913,-0.316 1.244,-0.543 0.329,-0.227 0.585,-0.477 0.757,-0.752 0.175,-0.279 0.26,-0.549 0.26,-0.811 0,-0.289 -0.091,-0.521 -0.277,-0.71 -0.187,-0.178 -0.451,-0.272 -0.79,-0.272 -0.247,0 -0.456,0.07 -0.633,0.221 -0.168,0.146 -0.37,0.367 -0.594,0.658 -0.183,0.244 -0.395,0.443 -0.644,0.59 -0.248,0.146 -0.581,0.22 -1.004,0.22 -0.436,0 -0.8,-0.095 -1.084,-0.289 -0.288,-0.195 -0.434,-0.435 -0.434,-0.724 0,-0.264 0.107,-0.481 0.318,-0.649 0.214,-0.168 0.496,-0.308 0.855,-0.42 0.36,-0.111 0.855,-0.25 1.483,-0.404 0.747,-0.189 1.355,-0.418 1.829,-0.681 0.473,-0.264 0.833,-0.573 1.074,-0.934 0.25,-0.363 0.37,-0.77 0.37,-1.229"
           style="fill:#ec008c;fill-opacity:1;fill-rule:nonzero;stroke:none"
           id="path26006"
           inkscape:connector-curvature="0" /><path
           d="m 370.943,277.035 c -0.366,0 -0.681,0.121 -0.941,0.369 -0.27,0.244 -0.398,0.59 -0.398,1.028 0,0.373 0.125,0.697 0.372,0.964 0.253,0.272 0.568,0.403 0.938,0.403 0.369,0 0.687,-0.131 0.941,-0.399 0.265,-0.261 0.398,-0.591 0.398,-0.968 0,-0.434 -0.133,-0.778 -0.398,-1.022 -0.254,-0.252 -0.56,-0.375 -0.912,-0.375"
           style="fill:#ec008c;fill-opacity:1;fill-rule:nonzero;stroke:none"
           id="path26008"
           inkscape:connector-curvature="0" /><path
           d="m 381.585,282.139 c 0,1.021 -0.218,1.82 -0.651,2.388 -0.43,0.569 -1.007,0.858 -1.737,0.858 -0.47,0 -0.881,-0.129 -1.241,-0.385 -0.36,-0.256 -0.636,-0.631 -0.827,-1.129 -0.192,-0.492 -0.292,-1.07 -0.292,-1.732 0,-0.659 0.095,-1.229 0.284,-1.721 0.196,-0.49 0.465,-0.865 0.824,-1.127 0.353,-0.26 0.77,-0.387 1.252,-0.387 0.73,0 1.307,0.284 1.737,0.858 0.433,0.57 0.651,1.363 0.651,2.377 m 2.419,0 c 0,-0.748 -0.111,-1.436 -0.338,-2.073 -0.224,-0.625 -0.543,-1.171 -0.969,-1.627 -0.425,-0.453 -0.925,-0.793 -1.516,-1.043 -0.585,-0.24 -1.246,-0.361 -1.984,-0.361 -0.729,0 -1.384,0.121 -1.967,0.369 -0.58,0.244 -1.082,0.596 -1.506,1.053 -0.432,0.457 -0.753,0.996 -0.977,1.617 -0.215,0.627 -0.326,1.311 -0.326,2.069 0,0.759 0.111,1.455 0.333,2.086 0.228,0.632 0.544,1.169 0.961,1.621 0.416,0.445 0.924,0.791 1.515,1.033 0.594,0.242 1.247,0.365 1.967,0.365 0.73,0 1.39,-0.123 1.984,-0.369 0.596,-0.244 1.103,-0.596 1.525,-1.051 0.422,-0.455 0.743,-0.996 0.968,-1.621 0.219,-0.625 0.33,-1.316 0.33,-2.068"
           style="fill:#ec008c;fill-opacity:1;fill-rule:nonzero;stroke:none"
           id="path26010"
           inkscape:connector-curvature="0" /><path
           d="m 388.289,280.658 v -2.092 c 0,-0.509 -0.115,-0.894 -0.343,-1.15 -0.227,-0.25 -0.519,-0.381 -0.87,-0.381 -0.351,0 -0.632,0.133 -0.859,0.387 -0.224,0.256 -0.335,0.639 -0.335,1.144 v 6.989 c 0,1.131 0.396,1.693 1.176,1.693 0.399,0 0.684,-0.135 0.859,-0.396 0.175,-0.262 0.279,-0.655 0.298,-1.168 0.282,0.513 0.578,0.906 0.881,1.168 0.303,0.261 0.708,0.396 1.21,0.396 0.51,0 1.002,-0.135 1.473,-0.396 0.479,-0.262 0.717,-0.614 0.717,-1.047 0,-0.307 -0.102,-0.565 -0.303,-0.762 -0.204,-0.195 -0.421,-0.299 -0.659,-0.299 -0.088,0 -0.3,0.059 -0.637,0.174 -0.338,0.111 -0.637,0.17 -0.898,0.17 -0.352,0 -0.635,-0.096 -0.864,-0.293 -0.222,-0.193 -0.397,-0.477 -0.52,-0.857 -0.121,-0.385 -0.21,-0.834 -0.253,-1.362 -0.048,-0.521 -0.073,-1.158 -0.073,-1.918"
           style="fill:#ec008c;fill-opacity:1;fill-rule:nonzero;stroke:none"
           id="path26012"
           inkscape:connector-curvature="0" /><path
           d="m 395.238,282.225 c 0,-1.016 0.214,-1.787 0.641,-2.311 0.426,-0.519 0.979,-0.783 1.648,-0.783 0.4,0 0.782,0.117 1.137,0.34 0.357,0.226 0.645,0.56 0.87,1.009 0.223,0.456 0.333,1 0.333,1.643 0,1.023 -0.219,1.82 -0.649,2.391 -0.43,0.574 -1,0.859 -1.702,0.859 -0.687,0 -1.241,-0.277 -1.654,-0.818 -0.417,-0.549 -0.624,-1.325 -0.624,-2.33 m 6.978,3.185 v -7.301 c 0,-0.834 -0.092,-1.55 -0.258,-2.15 -0.173,-0.604 -0.445,-1.102 -0.819,-1.492 -0.377,-0.393 -0.872,-0.684 -1.476,-0.875 -0.609,-0.186 -1.366,-0.281 -2.271,-0.281 -0.832,0 -1.574,0.119 -2.224,0.359 -0.651,0.248 -1.155,0.557 -1.509,0.943 -0.349,0.379 -0.528,0.774 -0.528,1.182 0,0.307 0.098,0.557 0.302,0.748 0.199,0.197 0.439,0.293 0.72,0.293 0.353,0 0.66,-0.162 0.928,-0.486 0.129,-0.172 0.267,-0.336 0.399,-0.502 0.139,-0.172 0.291,-0.319 0.458,-0.436 0.168,-0.121 0.374,-0.211 0.607,-0.269 0.229,-0.057 0.506,-0.086 0.813,-0.086 0.62,0 1.107,0.091 1.447,0.271 0.344,0.18 0.586,0.432 0.726,0.758 0.135,0.324 0.221,0.67 0.237,1.043 0.028,0.377 0.044,0.969 0.059,1.793 -0.37,-0.539 -0.805,-0.949 -1.285,-1.233 -0.483,-0.279 -1.063,-0.418 -1.73,-0.418 -0.81,0 -1.512,0.209 -2.113,0.643 -0.604,0.43 -1.067,1.027 -1.389,1.805 -0.32,0.769 -0.486,1.66 -0.486,2.676 0,0.755 0.095,1.439 0.297,2.046 0.191,0.602 0.473,1.118 0.843,1.536 0.36,0.418 0.782,0.732 1.26,0.943 0.477,0.209 0.994,0.318 1.568,0.318 0.681,0 1.271,-0.138 1.771,-0.414 0.504,-0.267 0.964,-0.701 1.394,-1.281 v 0.336 c 0,0.439 0.106,0.771 0.306,1.019 0.207,0.237 0.471,0.358 0.793,0.358 0.468,0 0.777,-0.156 0.931,-0.473 0.152,-0.318 0.229,-0.777 0.229,-1.373"
           style="fill:#ec008c;fill-opacity:1;fill-rule:nonzero;stroke:none"
           id="path26014"
           inkscape:connector-curvature="0" /><path
           d="m 297.899,309.868 h 3.572 c -0.253,-1.925 -1.042,-3.427 -2.352,-4.508 -1.216,-1.058 -2.688,-1.582 -4.404,-1.582 -2.33,0 -4.19,0.82 -5.579,2.454 -1.318,1.556 -1.975,3.561 -1.975,6.014 0,2.513 0.654,4.522 1.958,6.043 1.299,1.515 3.141,2.276 5.518,2.276 1.768,0 3.266,-0.48 4.482,-1.429 1.288,-1.024 2.073,-2.468 2.352,-4.316 h -3.572 c -0.305,1.612 -1.291,2.415 -2.965,2.415 -2.759,0 -4.145,-1.636 -4.145,-4.905 0,-1.534 0.36,-2.785 1.066,-3.761 0.712,-0.976 1.711,-1.465 3.003,-1.465 1.924,0 2.94,0.923 3.041,2.764 m -14.052,2.254 c 0,-3.196 1.013,-5.903 3.038,-8.104 2.024,-2.205 4.502,-3.307 7.443,-3.307 2.932,0 5.414,1.102 7.436,3.307 2.027,2.201 3.035,4.908 3.035,8.104 0,3.192 -1.008,5.893 -3.035,8.097 -2.022,2.208 -4.504,3.309 -7.436,3.309 -2.941,0 -5.419,-1.101 -7.443,-3.309 -2.025,-2.204 -3.038,-4.905 -3.038,-8.097 m -3.626,0 c 0,4.063 1.375,7.533 4.13,10.416 2.754,2.879 6.084,4.316 9.977,4.316 3.89,0 7.213,-1.437 9.971,-4.316 2.757,-2.883 4.136,-6.353 4.136,-10.416 0,-4.069 -1.379,-7.545 -4.136,-10.421 -2.758,-2.881 -6.081,-4.32 -9.971,-4.32 -3.893,0 -7.223,1.439 -9.977,4.32 -2.755,2.876 -4.13,6.352 -4.13,10.421"
           style="fill:#ec008c;fill-opacity:1;fill-rule:nonzero;stroke:none"
           id="path26016"
           inkscape:connector-curvature="0" /><path
           d="m 285.93,302.878 2.054,-1.745 15.133,19.43 -2.056,1.742 z"
           style="fill:#ec008c;fill-opacity:1;fill-rule:nonzero;stroke:none"
           id="path26018"
           inkscape:connector-curvature="0" /></g></g></g></svg>